{
    "asset": {
        "version": "2.0",
        "generator": "Open Asset Import Library (assimp v5.2.cf7d3637)"
    },
    "extensionsUsed": [
        "KHR_materials_volume",
        "KHR_materials_ior",
        "FB_ngon_encoding"
    ],
    "accessors": [
        {
            "bufferView": 0,
            "byteOffset": 0,
            "componentType": 5126,
            "count": 348,
            "type": "VEC3",
            "max": [
                279.0679016113281,
                111.60759735107422,
                247.3782958984375
            ],
            "min": [
                -210.3961944580078,
                -22.16119956970215,
                -115.18769836425781
            ]
        },
        {
            "bufferView": 1,
            "byteOffset": 0,
            "componentType": 5126,
            "count": 348,
            "type": "VEC3",
            "max": [
                0.904534101486206,
                0.904534101486206,
                0.904534101486206
            ],
            "min": [
                -0.904534101486206,
                -0.7071068286895752,
                -0.904534101486206
            ]
        },
        {
            "bufferView": 2,
            "byteOffset": 0,
            "componentType": 5126,
            "count": 348,
            "type": "VEC2",
            "max": [
                1.0,
                1.0
            ],
            "min": [
                0.0,
                0.0
            ]
        },
        {
            "bufferView": 3,
            "byteOffset": 0,
            "componentType": 5125,
            "count": 348,
            "type": "SCALAR",
            "max": [
                347
            ],
            "min": [
                0
            ]
        }
    ],
    "buffers": [
        {
            "byteLength": 12528,
            "uri": "result.bin"
        }
    ],
    "bufferViews": [
        {
            "buffer": 0,
            "byteOffset": 0,
            "byteLength": 4176,
            "target": 34962
        },
        {
            "buffer": 0,
            "byteOffset": 4176,
            "byteLength": 4176,
            "target": 34962
        },
        {
            "buffer": 0,
            "byteOffset": 8352,
            "byteLength": 2784,
            "target": 34962
        },
        {
            "buffer": 0,
            "byteOffset": 11136,
            "byteLength": 1392,
            "target": 34963
        }
    ],
    "materials": [
        {
            "name": "DefaultMaterial",
            "pbrMetallicRoughness": {
                "baseColorFactor": [
                    0.6000000238418579,
                    0.6000000238418579,
                    0.6000000238418579,
                    1.0
                ],
                "metallicFactor": 0.0
            },
            "extensions": {
                "KHR_materials_ior": {
                    "ior": 1.0
                }
            }
        },
        {
            "name": "wire_229154215",
            "pbrMetallicRoughness": {
                "baseColorFactor": [
                    0.6000000238418579,
                    0.6000000238418579,
                    0.6000000238418579,
                    1.0
                ],
                "metallicFactor": 0.0
            },
            "extensions": {
                "KHR_materials_ior": {
                    "ior": 1.0
                }
            }
        }
    ],
    "meshes": [
        {
            "name": "Plane001",
            "primitives": [
                {
                    "extensions": {
                        "FB_ngon_encoding": {}
                    },
                    "mode": 4,
                    "material": 1,
                    "indices": 3,
                    "attributes": {
                        "POSITION": 0,
                        "NORMAL": 1,
                        "TEXCOORD_0": 2
                    }
                }
            ]
        }
    ],
    "nodes": [
        {
            "name": "for360.obj",
            "children": [
                1,
                2
            ]
        },
        {
            "name": "Plane001"
        },
        {
            "name": "Plane001_node",
            "mesh": 0
        }
    ],
    "scenes": [
        {
            "nodes": [
                0
            ]
        }
    ],
    "scene": 0
}