{"accessors" : [{"bufferView" : 0, "byteOffset" : 0, "componentType" : 5123, "count" : 42, "type" : "SCALAR", "max" : [31], "min" : [0]}, {"bufferView" : 1, "byteOffset" : 0, "componentType" : 5126, "count" : 32, "type" : "VEC3", "max" : [53.65950012207031, 121.71749877929688, 50.568199157714844], "min" : [-48.98540115356445, 0, -52.076698303222656], "name" : "POSITION"}, {"bufferView" : 1, "byteOffset" : 12, "componentType" : 5126, "count" : 32, "type" : "VEC2", "max" : [0.9952999949455261, 0.9994999766349792], "min" : [0.0005000000237487257, 0.000500023365020752], "name" : "TEXCOORD_0"}, {"bufferView" : 1, "byteOffset" : 20, "componentType" : 5126, "count" : 32, "type" : "VEC3", "max" : [1.0000044107437134, 0.8045639991760254, 1.0000044107437134], "min" : [-1.0000044107437134, -1.0000044107437134, -1.0000044107437134], "name" : "NORMAL"}], "asset" : {"generator" : "Aspose.3D 25.3.0", "version" : "2.0"}, "buffers" : [{"uri" : "data:application/octet-stream;base64,", "byteLength" : 1116}], "bufferViews" : [{"buffer" : 0, "byteOffset" : 0, "byteLength" : 84, "target" : 34963}, {"buffer" : 0, "byteOffset" : 88, "byteLength" : 1024, "byteStride" : 32, "target" : 34962}], "meshes" : [{"primitives" : [{"attributes" : {"POSITION" : 1, "TEXCOORD_0" : 2, "NORMAL" : 3}, "indices" : 0, "mode" : 4}], "name" : ""}], "nodes" : [{"mesh" : 0, "name" : "Box001"}], "scene" : 0, "scenes" : [{"nodes" : [0]}]}